<svg width="32" height="31" viewBox="0 0 32 31" fill="none" xmlns="http://www.w3.org/2000/svg">
<g filter="url(#filter0_d_11_77)">
<path d="M21.1023 14.6664C21.1023 15.9178 20.4554 17.1372 19.1616 18.325C17.8679 19.4915 16.1923 20.4354 14.135 21.1565C12.0777 21.8564 9.97798 22.2064 7.83577 22.2064C6.58435 22.2064 5.46036 21.8564 4.46346 21.1565C3.48787 20.4566 3 19.8096 3 19.2158C3 18.6007 3.18023 18.2932 3.54084 18.2932C3.62563 18.2932 4.03921 18.5266 4.7816 18.9931C5.54514 19.4385 6.3405 19.6719 7.16767 19.693C6.87068 19.5446 6.58435 19.2688 6.30868 18.8659C6.05417 18.4629 5.92691 18.0812 5.92691 17.7205C5.92691 17.3599 6.18143 16.3525 6.69045 14.6982C8.26001 9.71401 9.06586 5.88564 9.10834 3.21324H8.85382C8.47205 3.21324 8.07962 2.97988 7.67669 2.51333C7.27377 2.02545 7.07223 1.63319 7.07223 1.3362C7.07223 0.975584 7.51763 0.6681 8.40842 0.413586C9.32038 0.137915 10.4127 0 11.6853 0C14.6547 0 16.9453 0.402928 18.5572 1.20894C20.169 2.01496 20.9751 3.18143 20.9751 4.70851C20.9751 5.98108 20.4342 7.13705 19.3525 8.17626C18.292 9.21548 16.7331 10.0533 14.6758 10.6896L14.9622 10.7214C16.7438 10.8275 18.2072 11.2622 19.3525 12.0258C20.519 12.7893 21.1023 13.6695 21.1023 14.6664ZM18.1118 4.86758C18.1118 4.16767 17.7512 3.62683 17.0301 3.24505C16.3302 2.84213 15.4712 2.64058 14.4531 2.64058C13.4562 2.64058 12.2368 2.76784 10.7945 3.02236C11.3883 3.65864 11.6853 4.27377 11.6853 4.86758C11.6853 5.44024 11.3142 7.19002 10.5718 10.1169C11.0808 9.79879 11.8762 9.43818 12.9579 9.03525C14.0395 8.611 14.8879 8.23989 15.503 7.92175C16.1393 7.60361 16.5953 7.32794 16.871 7.09458C17.168 6.84007 17.4437 6.51126 17.6982 6.10834C17.9739 5.70541 18.1118 5.29182 18.1118 4.86758ZM18.3345 14.5391C18.3345 13.9028 17.5921 13.3726 16.1075 12.9484C14.644 12.503 13.1806 12.2803 11.7171 12.2803C11.1445 12.2803 10.6461 11.9833 10.2218 11.3895C8.92811 16.5009 8.07962 19.2688 7.67669 19.693C9.18262 19.6506 10.7627 19.3855 12.417 18.8977C14.0714 18.3886 15.4712 17.7312 16.6165 16.9252C17.7618 16.1192 18.3345 15.3238 18.3345 14.5391Z" fill="#DDDDDD"/>
<path d="M31.8873 15.9708C31.8873 16.3737 30.954 16.8404 29.0877 17.3706C29.2574 19.5764 29.3422 21.4535 29.3422 23.0017C29.3422 25.6741 29.0029 27.0103 28.3241 27.0103C27.9635 27.0103 27.6772 26.7876 27.4651 26.3422C27.2531 25.8968 27.0834 25.1226 26.9561 24.0198C26.8077 21.9836 26.6486 19.99 26.4789 18.0387C25.5245 18.2932 24.6548 18.5266 23.8701 18.7386C23.0854 18.9295 21.8976 19.2476 20.3069 19.693C18.4405 24.5713 17.3375 27.0103 16.9982 27.0103C16.6589 27.0103 16.2877 26.8088 15.8847 26.4058C15.503 25.9816 15.3121 25.5362 15.3121 25.0696C15.3121 24.8576 15.9166 23.3517 17.1255 20.552H16.9028C16.4786 20.552 16.0968 20.4141 15.7575 20.1384C15.4393 19.8628 15.2803 19.5233 15.2803 19.1204C15.2803 18.6961 16.3301 18.1448 18.4299 17.466C18.7692 16.7025 19.045 16.0132 19.2571 15.3981C19.7449 14.1892 20.4235 12.5348 21.2932 10.4351C22.1628 8.33533 22.7142 6.99913 22.9475 6.42648C23.1809 5.83266 23.5838 5.33414 24.1564 4.93121C24.7503 4.50696 25.3229 4.29492 25.8744 4.29492C26.5319 4.29492 27.1152 5.34479 27.6242 7.44453C28.1544 9.54427 28.5786 12.1424 28.8968 15.239C29.4906 15.1754 30.0103 15.1436 30.4557 15.1436C31.4101 15.1436 31.8873 15.4193 31.8873 15.9708ZM21.4841 16.6389C22.99 16.2359 24.5807 15.8965 26.2562 15.6208C25.8744 11.994 25.5033 9.2686 25.1427 7.44453C24.1883 9.62906 22.9687 12.6939 21.4841 16.6389Z" fill="#DDDDDD"/>
</g>
<defs>
<filter id="filter0_d_11_77" x="0" y="0" width="31.8872" height="30.0103" filterUnits="userSpaceOnUse" color-interpolation-filters="sRGB">
<feFlood flood-opacity="0" result="BackgroundImageFix"/>
<feColorMatrix in="SourceAlpha" type="matrix" values="0 0 0 0 0 0 0 0 0 0 0 0 0 0 0 0 0 0 127 0" result="hardAlpha"/>
<feOffset dx="-2" dy="2"/>
<feGaussianBlur stdDeviation="0.5"/>
<feComposite in2="hardAlpha" operator="out"/>
<feColorMatrix type="matrix" values="0 0 0 0 0 0 0 0 0 0 0 0 0 0 0 0 0 0 0.46 0"/>
<feBlend mode="normal" in2="BackgroundImageFix" result="effect1_dropShadow_11_77"/>
<feBlend mode="normal" in="SourceGraphic" in2="effect1_dropShadow_11_77" result="shape"/>
</filter>
</defs>
</svg>
